<svg xmlns="http://www.w3.org/2000/svg" xmlns:xlink="http://www.w3.org/1999/xlink" width="24" height="25" viewBox="0 0 24 25">
    <defs>
        <path id="prefix__a" d="M14.921 15.848c1.542-1.17 3.872-2.94 3.872-7.276 0-4.725-3.987-8.556-8.904-8.556C4.97.016.984 3.846.984 8.572c0 4.335 2.33 6.105 3.872 7.276.827.628 1.216.96 1.216 1.28v2.443l2.544 2.445h2.545l2.544-2.444H8.616v-2.445c0-1.538-1.159-2.42-2.183-3.196-1.428-1.085-2.905-2.207-2.905-5.36 0-3.374 2.848-6.11 6.36-6.11 3.514 0 6.361 2.736 6.361 6.11 0 3.153-1.477 4.275-2.906 5.36-1.023.777-2.182 1.658-2.182 3.196h2.544c0-.32.39-.651 1.216-1.279"/>
    </defs>
    <g fill="none" fill-rule="evenodd" transform="translate(2 2)">
        <mask id="prefix__b" fill="#fff">
            <use xlink:href="#prefix__a"/>
        </mask>
        <use fill="#A100FF" xlink:href="#prefix__a"/>
        <path fill="#FFF" d="M-2.5 -1H21.5V23H-2.5z" mask="url(#prefix__b)"/>
    </g>
</svg>
