<svg xmlns="http://www.w3.org/2000/svg" xmlns:xlink="http://www.w3.org/1999/xlink" width="16" height="17" viewBox="0 0 16 17">
    <defs>
        <path id="prefix__a" d="M8.206.184c.267-.254.689-.244.943.023.234.246.243.624.034.88l-.057.062-5.598 5.334c-.241.23-.61.244-.867.045l-.062-.054L.2 4.099c-.262-.258-.265-.68-.006-.942.24-.242.617-.262.88-.06l.063.055 1.94 1.919L8.206.184z"/>
    </defs>
    <g fill="none" fill-rule="evenodd" transform="translate(0 .5)">
        <rect width="16" height="16" fill="#7500C0" rx="2"/>
        <g transform="translate(3.333 4.667)">
            <mask id="prefix__b" fill="#fff">
                <use xlink:href="#prefix__a"/>
            </mask>
            <use fill="#979797" fill-rule="nonzero" xlink:href="#prefix__a"/>
            <path fill="#FFF" d="M-3.333 -4.667H12.667V11.333H-3.333z" mask="url(#prefix__b)"/>
        </g>
    </g>
</svg>
