<?xml version="1.0" encoding="UTF-8" standalone="no"?>
<svg
   xmlns:dc="http://purl.org/dc/elements/1.1/"
   xmlns:cc="http://creativecommons.org/ns#"
   xmlns:rdf="http://www.w3.org/1999/02/22-rdf-syntax-ns#"
   xmlns:svg="http://www.w3.org/2000/svg"
   xmlns="http://www.w3.org/2000/svg"
   xmlns:xlink="http://www.w3.org/1999/xlink"
   xmlns:sodipodi="http://sodipodi.sourceforge.net/DTD/sodipodi-0.dtd"
   xmlns:inkscape="http://www.inkscape.org/namespaces/inkscape"
   width="18.666"
   height="18.667435"
   viewBox="0 0 18.666 18.667435"
   version="1.1"
   id="svg14"
   sodipodi:docname="close.svg"
   inkscape:version="0.92.3 (2405546, 2018-03-11)">
  <metadata
     id="metadata18">
    <rdf:RDF>
      <cc:Work
         rdf:about="">
        <dc:format>image/svg+xml</dc:format>
        <dc:type
           rdf:resource="http://purl.org/dc/dcmitype/StillImage" />
        <dc:title></dc:title>
      </cc:Work>
    </rdf:RDF>
  </metadata>
  <sodipodi:namedview
     pagecolor="#ffffff"
     bordercolor="#666666"
     borderopacity="1"
     objecttolerance="10"
     gridtolerance="10"
     guidetolerance="10"
     inkscape:pageopacity="0"
     inkscape:pageshadow="2"
     inkscape:window-width="1920"
     inkscape:window-height="1001"
     id="namedview16"
     showgrid="false"
     fit-margin-top="0"
     fit-margin-left="0"
     fit-margin-right="0"
     fit-margin-bottom="0"
     inkscape:zoom="7.1515152"
     inkscape:cx="-5.3398644"
     inkscape:cy="9.4572657"
     inkscape:window-x="-9"
     inkscape:window-y="-9"
     inkscape:window-maximized="1"
     inkscape:current-layer="g12" />
  <defs
     id="defs3">
    <path
       id="prefix__a"
       d="m 17.017,0.968 c 0.564,-0.438 1.378,-0.398 1.896,0.12 0.56,0.56 0.56,1.47 0,2.03 L 12.03,10 l 6.882,6.882 c 0.56,0.56 0.56,1.47 0,2.03 -0.518,0.518 -1.332,0.558 -1.896,0.12 L 16.881,18.912 10,12.032 3.118,18.914 2.983,19.034 c -0.564,0.437 -1.378,0.397 -1.896,-0.12 -0.56,-0.561 -0.56,-1.47 0,-2.03 L 7.97,10 1.087,3.118 c -0.56,-0.56 -0.56,-1.47 0,-2.03 C 1.605,0.57 2.42,0.53 2.983,0.967 l 0.135,0.12 6.882,6.88 6.882,-6.88 z"
       inkscape:connector-curvature="0" />
  </defs>
  <g
     transform="translate(-0.667,-0.66683032)"
     id="g12"
     style="fill:none;fill-rule:evenodd">
    <mask
       id="prefix__b"
       fill="#fff">
      <use
         xlink:href="#prefix__a"
         id="use5"
         x="0"
         y="0"
         width="100%"
         height="100%" />
    </mask>
    <use
       xlink:href="#prefix__a"
       id="use8"
       style="fill:#E60000;fill-rule:nonzero;fill-opacity:1"
       x="0"
       y="0"
       width="100%"
       height="100%" />
  </g>
</svg>
