<svg xmlns="http://www.w3.org/2000/svg" xmlns:xlink="http://www.w3.org/1999/xlink" width="24" height="24" viewBox="0 0 24 24">
    <defs>
        <path id="prefix__a" d="M19 20c.552 0 1 .448 1 1s-.448 1-1 1H1c-.552 0-1-.448-1-1s.448-1 1-1h18zM10 0c.456 0 .832.354.883.81l.006.107V14.96l5.613-5.444c.33-.32.835-.33 1.175-.039l.082.08c.284.312.316.775.102 1.12l-.064.092-.077.084-7.111 6.898c-.033.032-.068.061-.104.087l-.096.06-.099.045c-.097.037-.201.057-.31.057-.109 0-.213-.02-.31-.057l-.099-.046-.124-.08-.076-.066-7.111-6.898c-.358-.347-.375-.928-.039-1.297.31-.34.814-.382 1.17-.113l.087.073 5.614 5.446V.917C9.111.411 9.508 0 10 0z"/>
    </defs>
    <g fill="none" fill-rule="evenodd" transform="translate(2 1)">
        <mask id="prefix__b" fill="#fff">
            <use xlink:href="#prefix__a"/>
        </mask>
        <use fill="#9A30D8" fill-rule="nonzero" xlink:href="#prefix__a"/>
        <path fill="#7500C0" d="M-2 -1H22V23H-2z" mask="url(#prefix__b)"/>
    </g>
</svg>
