<?xml version="1.0" encoding="UTF-8" standalone="no"?>
<svg
   xmlns:dc="http://purl.org/dc/elements/1.1/"
   xmlns:cc="http://creativecommons.org/ns#"
   xmlns:rdf="http://www.w3.org/1999/02/22-rdf-syntax-ns#"
   xmlns:svg="http://www.w3.org/2000/svg"
   xmlns="http://www.w3.org/2000/svg"
   xmlns:xlink="http://www.w3.org/1999/xlink"
   xmlns:sodipodi="http://sodipodi.sourceforge.net/DTD/sodipodi-0.dtd"
   xmlns:inkscape="http://www.inkscape.org/namespaces/inkscape"
   width="24"
   height="24"
   viewBox="0 0 24 24"
   version="1.1"
   id="svg14"
   sodipodi:docname="download_white.svg"
   inkscape:version="0.92.3 (2405546, 2018-03-11)">
  <metadata
     id="metadata18">
    <rdf:RDF>
      <cc:Work
         rdf:about="">
        <dc:format>image/svg+xml</dc:format>
        <dc:type
           rdf:resource="http://purl.org/dc/dcmitype/StillImage" />
      </cc:Work>
    </rdf:RDF>
  </metadata>
  <sodipodi:namedview
     pagecolor="#ffffff"
     bordercolor="#666666"
     borderopacity="1"
     objecttolerance="10"
     gridtolerance="10"
     guidetolerance="10"
     inkscape:pageopacity="0"
     inkscape:pageshadow="2"
     inkscape:window-width="1920"
     inkscape:window-height="1001"
     id="namedview16"
     showgrid="false"
     inkscape:zoom="9.8333333"
     inkscape:cx="-0.40677966"
     inkscape:cy="12"
     inkscape:window-x="-9"
     inkscape:window-y="-9"
     inkscape:window-maximized="1"
     inkscape:current-layer="g12" />
  <defs
     id="defs3">
    <path
       id="prefix__a"
       d="M19 20c.552 0 1 .448 1 1s-.448 1-1 1H1c-.552 0-1-.448-1-1s.448-1 1-1h18zM10 0c.456 0 .832.354.883.81l.006.107V14.96l5.613-5.444c.33-.32.835-.33 1.175-.039l.082.08c.284.312.316.775.102 1.12l-.064.092-.077.084-7.111 6.898c-.033.032-.068.061-.104.087l-.096.06-.099.045c-.097.037-.201.057-.31.057-.109 0-.213-.02-.31-.057l-.099-.046-.124-.08-.076-.066-7.111-6.898c-.358-.347-.375-.928-.039-1.297.31-.34.814-.382 1.17-.113l.087.073 5.614 5.446V.917C9.111.411 9.508 0 10 0z" />
  </defs>
  <g
     transform="translate(2,1)"
     id="g12"
     style="fill:none;fill-rule:evenodd">
    <mask
       id="prefix__b"
       fill="#fff">
      <use
         xlink:href="#prefix__a"
         id="use5"
         x="0"
         y="0"
         width="100%"
         height="100%" />
    </mask>
    <use
       xlink:href="#prefix__a"
       id="use8"
       style="fill:#ffffff;fill-opacity:1;fill-rule:nonzero"
       x="0"
       y="0"
       width="100%"
       height="100%" />
    <path
       d="M -2,-1 H 22 V 23 H -2 Z"
       mask="url(#prefix__b)"
       id="path10"
       inkscape:connector-curvature="0"
       style="fill:#ffffff;fill-opacity:1"
       inkscape:label="path10" />
  </g>
</svg>
