<?xml version="1.0" encoding="UTF-8" standalone="no"?>
<svg
   xmlns:dc="http://purl.org/dc/elements/1.1/"
   xmlns:cc="http://creativecommons.org/ns#"
   xmlns:rdf="http://www.w3.org/1999/02/22-rdf-syntax-ns#"
   xmlns:svg="http://www.w3.org/2000/svg"
   xmlns="http://www.w3.org/2000/svg"
   xmlns:xlink="http://www.w3.org/1999/xlink"
   xmlns:sodipodi="http://sodipodi.sourceforge.net/DTD/sodipodi-0.dtd"
   xmlns:inkscape="http://www.inkscape.org/namespaces/inkscape"
   width="25"
   height="24"
   viewBox="0 0 25 24"
   version="1.1"
   id="svg14"
   sodipodi:docname="left_hover.svg"
   inkscape:version="0.92.3 (2405546, 2018-03-11)">
  <metadata
     id="metadata18">
    <rdf:RDF>
      <cc:Work
         rdf:about="">
        <dc:format>image/svg+xml</dc:format>
        <dc:type
           rdf:resource="http://purl.org/dc/dcmitype/StillImage" />
        <dc:title />
      </cc:Work>
    </rdf:RDF>
  </metadata>
  <sodipodi:namedview
     pagecolor="#ffffff"
     bordercolor="#666666"
     borderopacity="1"
     objecttolerance="10"
     gridtolerance="10"
     guidetolerance="10"
     inkscape:pageopacity="0"
     inkscape:pageshadow="2"
     inkscape:window-width="1920"
     inkscape:window-height="1001"
     id="namedview16"
     showgrid="false"
     inkscape:zoom="9.8333333"
     inkscape:cx="-24.466102"
     inkscape:cy="12"
     inkscape:window-x="-9"
     inkscape:window-y="-9"
     inkscape:window-maximized="1"
     inkscape:current-layer="g12" />
  <defs
     id="defs3">
    <path
       id="prefix__a"
       d="M5.232.36c.353-.424.984-.482 1.408-.128.392.326.47.889.203 1.307l-.075.101L2.302 7l4.466 5.36c.327.391.303.959-.036 1.322l-.092.086c-.391.327-.959.303-1.322-.036l-.086-.092-5-6c-.281-.337-.307-.813-.077-1.175l.077-.105 5-6z" />
  </defs>
  <g
     transform="translate(8,5)"
     id="g12"
     style="fill:#ffffff;fill-opacity:1;fill-rule:evenodd">
    <mask
       id="prefix__b"
       fill="#fff">
      <use
         xlink:href="#prefix__a"
         id="use5"
         x="0"
         y="0"
         width="100%"
         height="100%" />
    </mask>
    <use
       xlink:href="#prefix__a"
       id="use8"
       style="fill:#ffffff;fill-opacity:1;fill-rule:nonzero"
       x="0"
       y="0"
       width="100%"
       height="100%" />
    <path
       d="M -8,-5 H 16 V 19 H -8 Z"
       mask="url(#prefix__b)"
       id="path10"
       inkscape:connector-curvature="0"
       style="fill:#ffffff;fill-opacity:1" />
  </g>
</svg>
