<svg xmlns="http://www.w3.org/2000/svg" xmlns:xlink="http://www.w3.org/1999/xlink" width="32" height="32" viewBox="0 0 32 32">
    <defs>
        <path id="prefix__a" d="M2 16.667c1.105 0 2 .895 2 2 0 1.104-.895 2-2 2s-2-.896-2-2c0-1.105.895-2 2-2zm25.333 0c1.105 0 2 .895 2 2 0 1.104-.895 2-2 2H8.667c-1.105 0-2-.896-2-2 0-1.105.895-2 2-2h18.666zM2 8.667c1.105 0 2 .895 2 2 0 1.104-.895 2-2 2s-2-.896-2-2c0-1.105.895-2 2-2zm25.333 0c1.105 0 2 .895 2 2 0 1.104-.895 2-2 2H8.667c-1.105 0-2-.896-2-2 0-1.105.895-2 2-2h18.666zM2 .667c1.105 0 2 .895 2 2 0 1.104-.895 2-2 2s-2-.896-2-2c0-1.105.895-2 2-2zm25.333 0c1.105 0 2 .895 2 2 0 1.104-.895 2-2 2H8.667c-1.105 0-2-.896-2-2 0-1.105.895-2 2-2h18.666z"/>
    </defs>
    <g fill="none" fill-rule="evenodd" transform="translate(1.333 5.333)">
        <mask id="prefix__b" fill="#fff">
            <use xlink:href="#prefix__a"/>
        </mask>
        <use fill="#353A3E" xlink:href="#prefix__a"/>
        <path fill="#313131" d="M-1.333 -5.333H30.667V26.667H-1.333z" mask="url(#prefix__b)"/>
    </g>
</svg>
