<svg id="Capa_1" data-name="Capa 1" xmlns="http://www.w3.org/2000/svg" viewBox="0 0 31 46" style="width:50px;height:50px;"><defs><style>.cls-1{fill:#040507;opacity:0;}.cls-1,.cls-10,.cls-11,.cls-12,.cls-13,.cls-14,.cls-2,.cls-3,.cls-4,.cls-5,.cls-6,.cls-7,.cls-8,.cls-9{fill-rule:evenodd;}.cls-2{fill:#080a0d;opacity:0.01;}.cls-3{fill:#0b0e14;opacity:0.01;}.cls-4{fill:#0f131b;opacity:0.01;}.cls-5{fill:#131822;opacity:0.02;}.cls-6{fill:#171d29;opacity:0.02;}.cls-7{fill:#1b2230;opacity:0.02;}.cls-8{fill:#1f2737;opacity:0.03;}.cls-9{fill:#232c3f;opacity:0.03;}.cls-10{fill:#273246;opacity:0.03;}.cls-11{fill:#2b374d;opacity:0.04;}.cls-12{fill:#2f3c54;opacity:0.04;}.cls-13{fill:#34415c;opacity:0.04;}.cls-14{fill:#384763;opacity:0.05;}.cls-15{fill:#ee3a2c;}.cls-16{fill:#c73125;}.cls-17{fill:#f9f9f9;}.cls-18{fill:#dedede;}.cls-19{fill:#b32c21;}.cls-20{fill:#a1271e;}.cls-21{fill:#ff5c4f;}.cls-22{fill:#fdbe31;}.cls-23{fill:#ffd966;}.cls-24{fill:#ffdc46;}.cls-25{fill:#ffeea3;}.cls-26{fill:#f0ad1a;}.cls-27{fill:#e6a619;}.cls-28{fill:#fab41b;}</style></defs><title>medalla_30x45</title><path class="cls-1" d="M25.51,28.08c5.31,3.07,5.31,8,0,11.11s-13.93,3.07-19.24,0-5.31-8,0-11.11S20.2,25,25.51,28.08Z"/><path class="cls-2" d="M24.87,28.46c5,2.86,5,7.51,0,10.37s-13,2.86-18,0-5-7.51,0-10.37S19.91,25.59,24.87,28.46Z"/><path class="cls-3" d="M24.23,28.83c4.6,2.66,4.6,7,0,9.62s-12.06,2.66-16.66,0-4.6-7,0-9.62S19.62,26.17,24.23,28.83Z"/><path class="cls-4" d="M23.58,29.2c4.25,2.45,4.25,6.43,0,8.88a17,17,0,0,1-15.37,0C4,35.63,4,31.65,8.21,29.2A17,17,0,0,1,23.58,29.2Z"/><path class="cls-5" d="M22.94,29.57c3.89,2.25,3.89,5.89,0,8.13a15.56,15.56,0,0,1-14.09,0C5,35.46,5,31.82,8.85,29.57A15.56,15.56,0,0,1,22.94,29.57Z"/><path class="cls-6" d="M22.29,29.95c3.53,2,3.53,5.35,0,7.39a14.14,14.14,0,0,1-12.8,0C6,35.3,6,32,9.49,29.95A14.14,14.14,0,0,1,22.29,29.95Z"/><path class="cls-7" d="M21.65,30.32c3.18,1.84,3.18,4.81,0,6.65a12.71,12.71,0,0,1-11.51,0C7,35.13,7,32.15,10.14,30.32A12.71,12.71,0,0,1,21.65,30.32Z"/><path class="cls-8" d="M21,30.69c2.82,1.63,2.82,4.27,0,5.9a11.29,11.29,0,0,1-10.22,0C8,35,8,32.32,10.78,30.69A11.29,11.29,0,0,1,21,30.69Z"/><path class="cls-9" d="M20.36,31.06c2.47,1.42,2.47,3.73,0,5.16a9.86,9.86,0,0,1-8.93,0C9,34.8,9,32.49,11.43,31.06A9.86,9.86,0,0,1,20.36,31.06Z"/><path class="cls-10" d="M19.71,31.44c2.11,1.22,2.11,3.19,0,4.41a8.44,8.44,0,0,1-7.64,0c-2.11-1.22-2.11-3.19,0-4.41A8.44,8.44,0,0,1,19.71,31.44Z"/><path class="cls-11" d="M19.07,31.81c1.75,1,1.75,2.65,0,3.67a7,7,0,0,1-6.35,0c-1.75-1-1.75-2.65,0-3.67A7,7,0,0,1,19.07,31.81Z"/><path class="cls-12" d="M18.42,32.18c1.4.81,1.4,2.12,0,2.92a5.59,5.59,0,0,1-5.06,0c-1.4-.81-1.4-2.12,0-2.92A5.59,5.59,0,0,1,18.42,32.18Z"/><path class="cls-13" d="M17.78,32.55a1.15,1.15,0,0,1,0,2.18,4.16,4.16,0,0,1-3.77,0,1.15,1.15,0,0,1,0-2.18A4.17,4.17,0,0,1,17.78,32.55Z"/><path class="cls-14" d="M17.13,32.92a.76.76,0,0,1,0,1.43,2.74,2.74,0,0,1-2.48,0,.76.76,0,0,1,0-1.43A2.74,2.74,0,0,1,17.13,32.92Z"/><polygon class="cls-15" points="21.22 21.25 21.22 35.78 19.96 35.55 19.29 35.42 16.27 34.87 13.25 38.91 12.59 39.8 11.32 41.5 11.32 29.71 11.32 26.97 21.22 21.25"/><path class="cls-16" d="M21.22,21.25v2.93a17,17,0,0,1-4.83,4.39,7.4,7.4,0,0,1-5.08,1.15V27Z"/><polygon class="cls-17" points="13.25 25.85 13.25 38.91 12.59 39.8 12.59 29.8 12.59 26.23 13.25 25.85"/><polygon class="cls-17" points="19.96 21.98 19.96 35.55 19.29 35.42 19.29 22.36 19.96 21.98"/><path class="cls-18" d="M12.59,26.23l.67-.39v3.88a6.08,6.08,0,0,1-.67.07Z"/><path class="cls-18" d="M20,22v3.69q-.33.35-.67.68v-4Z"/><polygon class="cls-19" points="9.12 40.23 11.32 41.5 11.32 26.97 9.12 25.7 9.12 40.23"/><polygon class="cls-20" points="9.12 28.37 11.32 29.64 11.32 26.97 9.12 25.7 9.12 28.37"/><polygon class="cls-21" points="11.32 41.5 11.21 28.23 11.54 28.39 11.32 41.5"/><polygon class="cls-22" points="10.22 28.02 7.29 26.33 20.3 4.13 22.86 5.62 10.22 28.02"/><path class="cls-22" d="M23.11,10.11a17.77,17.77,0,0,1-1.92,7.57,20.89,20.89,0,0,1-5.11,6.73A14.34,14.34,0,0,1,14,25.87c-5,2.9-9.1.55-9.1-5.26a14.72,14.72,0,0,1,.36-3.14,19.13,19.13,0,0,1,.88-2.88A22.18,22.18,0,0,1,8.8,9.74,20.29,20.29,0,0,1,10.68,7.5,15.47,15.47,0,0,1,14,4.85C19,1.95,23.11,4.3,23.11,10.11Z"/><path class="cls-23" d="M19.24,13a20.89,20.89,0,0,1-5.11,6.73l-8-5.11A22.18,22.18,0,0,1,8.8,9.74,20.29,20.29,0,0,1,10.68,7.5Z"/><path class="cls-24" d="M25.5,11.5a13.39,13.39,0,0,1-.08,1.45c-.59,5.49-4.41,11.65-9,14.32-2.35,1.36-4.49,1.57-6.11.81a4.4,4.4,0,0,1-1.36-1,4.83,4.83,0,0,1-.35-.42,6.6,6.6,0,0,1-1.14-2.8A10.59,10.59,0,0,1,7.29,22c0-5.81,4.08-12.86,9.1-15.77,3.39-2,6.35-1.52,7.92.75a6.86,6.86,0,0,1,1.07,2.87c0,.22.06.45.08.69S25.5,11.17,25.5,11.5Z"/><path class="cls-25" d="M9,27.12a6.6,6.6,0,0,1-1.14-2.8,10.58,10.58,0,0,1-.15-1.85c0-5.81,4.08-12.86,9.1-15.77C19.72,5,22.29,5.1,24,6.56c-1.63-1.86-4.41-2.11-7.56-.29-5,2.9-9.1,10-9.1,15.77a10.59,10.59,0,0,0,.15,1.85,6.6,6.6,0,0,0,1.14,2.8,4.8,4.8,0,0,0,.35.42,4.51,4.51,0,0,0,.35.33C9.19,27.34,9.1,27.23,9,27.12Z"/><path class="cls-26" d="M23.26,12.79A15.17,15.17,0,0,1,16.4,24.68c-2.08,1.2-3.95,1.21-5.2.24a5.08,5.08,0,0,1-1.66-4.2A15.16,15.16,0,0,1,16.4,8.83c1.79-1,3.43-1.18,4.65-.59S23.26,10.49,23.26,12.79Z"/><path class="cls-25" d="M21,8.25a3.62,3.62,0,0,0-1.68-.35,3.57,3.57,0,0,1,1.51.35c1.36.66,2.21,2.25,2.21,4.55a15.17,15.17,0,0,1-6.86,11.88,6.29,6.29,0,0,1-3,.94,6.15,6.15,0,0,0,3.15-.94,15.17,15.17,0,0,0,6.86-11.88C23.26,10.49,22.41,8.91,21,8.25Z"/><path class="cls-22" d="M22.7,12.45a15.16,15.16,0,0,1-6.86,11.88c-1.79,1-3.43,1.18-4.65.59a5.08,5.08,0,0,1-1.66-4.2A15.16,15.16,0,0,1,16.4,8.83c1.79-1,3.43-1.18,4.65-.59A5.09,5.09,0,0,1,22.7,12.45Z"/><path class="cls-25" d="M10.74,24.51,8.59,26.66a6.6,6.6,0,0,1-1.14-2.8l2.15-2.15h0v.1c0,.1,0,.19,0,.28l0,.14h0l0,.13,0,.08.05.2,0,.09.06.2,0,.09.07.19,0,.08h0l0,.08,0,.08,0,.08.11.22,0,.07.1.16.06.1h0l.07.09,0,.06,0,.05.08.1.08.09Z"/><path class="cls-25" d="M25.38,9.87,23.22,12a5.21,5.21,0,0,0-1.05-2.88L24.32,7A6.86,6.86,0,0,1,25.38,9.87Z"/><path class="cls-25" d="M12.79,25.58l-2.5,2.5a4.4,4.4,0,0,1-1.36-1l2.21-2.21.05,0A3.33,3.33,0,0,0,12.79,25.58Z"/><path class="cls-25" d="M25.5,11.5a13.39,13.39,0,0,1-.08,1.45l-2.5,2.5a11.28,11.28,0,0,0,.34-2.65v0l2.2-2.2Q25.5,11,25.5,11.5Z"/><polygon class="cls-27" points="20.02 13.51 18.54 16.06 18.96 19.57 16.05 19.52 15.36 20.3 13.77 23.27 13.07 22.87 13.1 22.72 13.61 18.82 11.36 17.37 14.56 14.95 14.59 14.92 16.16 10.7 16.84 11.1 16.87 11.15 16.9 11.96 17.07 12.25 17.64 13.22 20.86 12.05 21.54 12.46 20.02 13.51"/><polygon class="cls-28" points="17.07 12.25 15.27 15.33 14.56 14.95 14.59 14.92 16.16 10.7 16.84 11.1 16.87 11.15 16.9 11.96 17.07 12.25"/><polygon class="cls-24" points="21.54 12.46 20.45 14.35 20.45 14.35 19.39 16.17 19.21 16.47 19.45 18.45 19.64 19.98 17.95 19.95 16.72 19.93 13.76 23.27 13.98 21.58 14.1 20.7 14.29 19.23 12.67 18.19 12.04 17.78 15.27 15.33 16.84 11.1 17.92 12.94 18.32 13.63 21.54 12.46"/><polygon class="cls-25" points="14.1 20.92 14.28 19.21 14.1 20.7 13.98 21.58 13.76 23.27 13.8 23.23 13.98 21.8 14.1 20.92"/><polygon class="cls-25" points="15.35 15.45 16.91 11.34 18.27 13.72 21.54 12.46 18.32 13.63 17.92 12.94 16.84 11.1 15.27 15.33 12.04 17.78 15.35 15.45"/><polygon class="cls-25" points="19.21 16.48 19.45 18.68 19.61 19.98 19.64 19.98 19.45 18.45 19.21 16.48"/></svg>