<?xml version="1.0" encoding="UTF-8" standalone="no"?>
<svg
   xmlns:dc="http://purl.org/dc/elements/1.1/"
   xmlns:cc="http://creativecommons.org/ns#"
   xmlns:rdf="http://www.w3.org/1999/02/22-rdf-syntax-ns#"
   xmlns:svg="http://www.w3.org/2000/svg"
   xmlns="http://www.w3.org/2000/svg"
   xmlns:xlink="http://www.w3.org/1999/xlink"
   xmlns:sodipodi="http://sodipodi.sourceforge.net/DTD/sodipodi-0.dtd"
   xmlns:inkscape="http://www.inkscape.org/namespaces/inkscape"
   width="24"
   height="24"
   viewBox="0 0 24 24"
   version="1.1"
   id="svg14"
   sodipodi:docname="right.svg"
   inkscape:version="0.92.3 (2405546, 2018-03-11)">
  <metadata
     id="metadata18">
    <rdf:RDF>
      <cc:Work
         rdf:about="">
        <dc:format>image/svg+xml</dc:format>
        <dc:type
           rdf:resource="http://purl.org/dc/dcmitype/StillImage" />
        <dc:title></dc:title>
      </cc:Work>
    </rdf:RDF>
  </metadata>
  <sodipodi:namedview
     pagecolor="#ffffff"
     bordercolor="#666666"
     borderopacity="1"
     objecttolerance="10"
     gridtolerance="10"
     guidetolerance="10"
     inkscape:pageopacity="0"
     inkscape:pageshadow="2"
     inkscape:window-width="1920"
     inkscape:window-height="1001"
     id="namedview16"
     showgrid="false"
     inkscape:pagecheckerboard="true"
     inkscape:zoom="3.4766083"
     inkscape:cx="-23.475956"
     inkscape:cy="4.3704895"
     inkscape:window-x="-9"
     inkscape:window-y="-9"
     inkscape:window-maximized="1"
     inkscape:current-layer="g12" />
  <defs
     id="defs3">
    <path
       id="prefix__a"
       d="M5.232.36c.353-.424.984-.482 1.408-.128.392.326.47.889.203 1.307l-.075.101L2.302 7l4.466 5.36c.327.391.303.959-.036 1.322l-.092.086c-.391.327-.959.303-1.322-.036l-.086-.092-5-6c-.281-.337-.307-.813-.077-1.175l.077-.105 5-6z" />
    <filter
       inkscape:collect="always"
       style="color-interpolation-filters:sRGB"
       id="filter828"
       x="-0.071998321"
       width="1.1439966"
       y="-0.03600042"
       height="1.0720008">
      <feGaussianBlur
         inkscape:collect="always"
         stdDeviation="0.21000493"
         id="feGaussianBlur830" />
    </filter>
  </defs>
  <g
     transform="translate(9,5)"
     id="g12"
     style="fill:none;fill-rule:evenodd">
    <mask
       id="prefix__b"
       fill="#fff">
      <use
         xlink:href="#prefix__a"
         id="use5"
         x="0"
         y="0"
         width="100%"
         height="100%" />
    </mask>
    <use
       transform="matrix(-1,0,0,1,7,0)"
       xlink:href="#prefix__a"
       id="use8"
       style="display:inline;fill:#ffffff;filter:url(#filter828);fill-opacity:1"
       x="0"
       y="0"
       width="100%"
       height="100%" />
  </g>
</svg>
