<svg xmlns="http://www.w3.org/2000/svg" xmlns:xlink="http://www.w3.org/1999/xlink" width="24" height="24" viewBox="0 0 24 24">
    <defs>
        <path id="prefix__a" d="M8.732-2.64c.353-.424.984-.482 1.408-.128.392.326.47.889.203 1.307l-.075.101L5.802 4l4.466 5.36c.327.391.303.959-.036 1.322l-.092.086c-.391.327-.959.303-1.322-.036l-.086-.092-5-6c-.281-.337-.307-.813-.077-1.175l.077-.105 5-6z"/>
    </defs>
    <g fill="none" fill-rule="evenodd" transform="translate(5 8)">
        <mask id="prefix__b" fill="#fff">
            <use xlink:href="#prefix__a"/>
        </mask>
        <use fill="#353A3E" fill-rule="nonzero" transform="rotate(90 7 4)" xlink:href="#prefix__a"/>
        <path fill="#FFF" d="M-5 -8H19V16H-5z" mask="url(#prefix__b)" transform="rotate(90 7 4)"/>
    </g>
</svg>
