<?xml version="1.0" encoding="UTF-8" standalone="no"?>
<svg
 xmlns:dc="http://purl.org/dc/elements/1.1/"
 xmlns:cc="http://creativecommons.org/ns#"
 xmlns:rdf="http://www.w3.org/1999/02/22-rdf-syntax-ns#"
 xmlns:svg="http://www.w3.org/2000/svg"
 xmlns="http://www.w3.org/2000/svg"
 xmlns:xlink="http://www.w3.org/1999/xlink"
 xmlns:sodipodi="http://sodipodi.sourceforge.net/DTD/sodipodi-0.dtd"
 xmlns:inkscape="http://www.inkscape.org/namespaces/inkscape"
 width="25"
 height="24"
 viewBox="0 0 25 24"
 version="1.1"
 id="svg845"
 sodipodi:docname="up_negro.svg"
 inkscape:version="1.0.1 (3bc2e813f5, 2020-09-07)">
<metadata
 id="metadata849">
<rdf:RDF>
<cc:Work
 rdf:about="">
<dc:format>image/svg+xml</dc:format>
<dc:type
 rdf:resource="http://purl.org/dc/dcmitype/StillImage" />
<dc:title></dc:title>
</cc:Work>
</rdf:RDF>
</metadata>
<sodipodi:namedview
 pagecolor="#ffffff"
 bordercolor="#666666"
 borderopacity="1"
 objecttolerance="10"
 gridtolerance="10"
 guidetolerance="10"
 inkscape:pageopacity="0"
 inkscape:pageshadow="2"
 inkscape:window-width="1920"
 inkscape:window-height="1001"
 id="namedview847"
 showgrid="false"
 inkscape:zoom="33.666667"
 inkscape:cx="12.5"
 inkscape:cy="12"
 inkscape:window-x="-9"
 inkscape:window-y="-9"
 inkscape:window-maximized="1"
 inkscape:current-layer="g843"
 inkscape:document-rotation="0" />
<defs
 id="defs834">
<path
 id="prefix__a"
 d="M12.769.203l.084.077 6.898 7.111c.032.033.061.068.087.104l.06.096.045.099c.037.097.057.201.057.31 0 .109-.02.213-.057.31l-.046.099-.08.124-.066.076-6.898 7.111c-.347.358-.928.375-1.297.039-.34-.31-.382-.814-.113-1.17l.073-.087 5.446-5.614H.917C.411 8.889 0 8.492 0 8c0-.456.354-.832.81-.883l.107-.006H16.96l-5.444-5.613c-.32-.33-.33-.835-.039-1.175l.08-.082c.312-.284.775-.316 1.12-.102l.092.064z" />
</defs>
<g
 transform="rotate(-90,13,9)"
 id="g843"
 style="fill:none;fill-rule:evenodd">
<mask
 id="prefix__b"
 fill="#fff">
<use
 xlink:href="#prefix__a"
 id="use836"
 x="0"
 y="0"
 width="100%"
 height="100%" />
</mask>
<use
 xlink:href="#prefix__a"
 id="use839"
 style="fill:#f3ecf7;fill-rule:nonzero"
 x="0"
 y="0"
 width="100%"
 height="100%" />
<path
 d="M -2,-4 H 22 V 20 H -2 Z"
 mask="url(#prefix__b)"
 id="path841"
 inkscape:connector-curvature="0"
 style="fill:#000000" />
</g>
</svg>
