<svg width="37" height="40" xmlns="http://www.w3.org/2000/svg" xmlns:xlink="http://www.w3.org/1999/xlink" overflow="hidden"><defs><clipPath id="clip0"><rect x="938" y="502" width="37" height="48"/></clipPath></defs><g clip-path="url(#clip0)" transform="translate(-938 -502)"><path d="M943 532C942.833 532 942.667 532 942.5 531.833 942.167 531.667 942 531.333 942 531 942 505 942 505 942 505 942 504.667 942.167 504.333 942.5 504.167 942.833 504 943.167 504 943.5 504.167 973.5 517.167 973.5 517.167 973.5 517.167 973.833 517.167 974 517.667 974 518 974 518.333 973.833 518.833 973.5 519 943.5 532 943.5 532 943.5 532 943.333 532 943.167 532 943 532ZM944 506.5C944 529.5 944 529.5 944 529.5 970.5 518 970.5 518 970.5 518L944 506.5Z" fill-rule="evenodd"/><path d="M939 550C938.5 550 938 549.5 938 549 938 503 938 503 938 503 938 502.5 938.5 502 939 502 939.667 502 940 502.5 940 503 940 549 940 549 940 549 940 549.5 939.667 550 939 550Z" fill-rule="evenodd"/></g></svg>