<svg width="26" height="26" xmlns="http://www.w3.org/2000/svg" xmlns:xlink="http://www.w3.org/1999/xlink" overflow="hidden"><defs><clipPath id="clip0"><rect x="122" y="502" width="26" height="26"/></clipPath></defs><g clip-path="url(#clip0)" transform="translate(-122 -502)"><path d="M130.185 526.5C130.106 526.5 129.946 526.5 129.867 526.341 123.659 520.133 123.659 520.133 123.659 520.133 123.5 519.974 123.5 519.656 123.659 519.497 123.818 519.337 124.137 519.337 124.296 519.497 130.106 525.306 130.106 525.306 130.106 525.306 145.545 503.818 145.545 503.818 145.545 503.818 145.704 503.58 146.023 503.5 146.261 503.659 146.42 503.818 146.5 504.137 146.341 504.375 130.583 526.341 130.583 526.341 130.583 526.341 130.504 526.42 130.344 526.5 130.265 526.5 130.265 526.5 130.185 526.5 130.185 526.5Z" stroke="#A100FF" stroke-linejoin="round" stroke-miterlimit="10" fill="#A100FF" fill-rule="evenodd"/></g></svg>