<svg width="49" height="49" xmlns="http://www.w3.org/2000/svg" xmlns:xlink="http://www.w3.org/1999/xlink" overflow="hidden"><defs><clipPath id="clip0"><rect x="695" y="509" width="49" height="49"/></clipPath></defs><g clip-path="url(#clip0)" transform="translate(-695 -509)"><path d="M719.15 530.865C717.977 530.865 717 531.805 717 532.932 717 534.06 717.977 535 719.15 535 720.323 535 721.301 534.06 721.301 532.932 721.301 532.932 721.301 532.744 721.105 532.556 731.271 522.782 731.271 522.782 731.271 522.782 736.353 522.782 736.353 522.782 736.353 522.782 736.549 522.782 736.94 522.782 737.135 522.594 742.609 517.331 742.609 517.331 742.609 517.331 743 516.955 743 516.391 742.805 516.015 742.609 515.639 742.218 515.263 741.632 515.263 737.526 515.263 737.526 515.263 737.526 515.263 737.526 511.316 737.526 511.316 737.526 511.316 737.526 510.752 737.135 510.376 736.744 510.188 736.353 510 735.767 510 735.376 510.376 729.902 515.639 729.902 515.639 729.902 515.639 729.707 515.827 729.511 516.203 729.511 516.391 729.511 521.09 729.511 521.09 729.511 521.09 719.346 530.865 719.346 530.865 719.346 530.865 719.346 530.865 719.15 530.865 719.15 530.865ZM735.376 517.331C735.571 517.519 735.962 517.707 736.353 517.707 738.699 517.707 738.699 517.707 738.699 517.707 735.767 520.526 735.767 520.526 735.767 520.526 732.053 520.526 732.053 520.526 732.053 520.526 732.053 516.955 732.053 516.955 732.053 516.955 734.985 514.135 734.985 514.135 734.985 514.135 734.985 516.391 734.985 516.391 734.985 516.391 734.985 516.767 735.18 517.143 735.376 517.331Z" fill-rule="evenodd"/><path d="M726.876 520.106C727.071 519.524 726.876 518.747 726.294 518.553 726.1 518.553 726.1 518.553 726.1 518.553 723.965 517.582 721.829 517 719.5 517 710.376 517 703 524.376 703 533.5 703 542.624 710.376 550 719.5 550 728.429 550 736 542.624 736 533.5 736 531.171 735.418 528.841 734.447 526.706 734.253 526.512 734.059 526.318 733.671 526.124 733.476 525.929 733.088 525.929 732.894 526.124 732.506 526.318 732.312 526.512 732.118 526.9 732.118 527.094 732.118 527.482 732.312 527.676 733.088 529.618 733.476 531.559 733.476 533.5 733.476 541.265 727.071 547.671 719.5 547.671 711.735 547.671 705.329 541.265 705.329 533.5 705.329 525.735 711.735 519.524 719.5 519.524 721.441 519.524 723.382 519.912 725.129 520.688 725.906 521.076 726.488 520.688 726.876 520.106Z" fill-rule="evenodd"/><path d="M719.5 526.438C719.896 526.438 720.49 526.438 720.885 526.625 721.677 526.812 722.271 526.25 722.469 525.688 722.667 525.125 722.271 524.375 721.479 524.375 720.885 524.188 720.094 524 719.5 524 714.156 524 710 528.125 710 533 710 538.062 714.156 542 719.5 542 724.646 542 729 538.062 729 533 729 532.438 728.802 531.688 728.604 531.125 728.604 530.75 728.406 530.562 728.208 530.375 727.812 530.188 727.417 530 727.219 530.188 726.823 530.188 726.625 530.375 726.427 530.75 726.229 530.938 726.229 531.312 726.229 531.5 726.427 532.062 726.427 532.625 726.427 533 726.427 536.75 723.26 539.75 719.5 539.75 715.542 539.75 712.375 536.75 712.375 533 712.375 529.438 715.542 526.438 719.5 526.438Z" fill-rule="evenodd"/><path d="M741.074 524.254C740.881 523.869 740.689 523.676 740.303 523.484 740.111 523.484 739.725 523.484 739.34 523.484 738.762 523.869 738.57 524.639 738.762 525.217 739.918 527.914 740.496 530.611 740.496 533.5 740.496 545.057 731.057 554.689 719.5 554.689 707.75 554.689 698.311 545.057 698.311 533.5 698.311 521.943 707.75 512.504 719.5 512.504 722.389 512.504 725.086 513.082 727.783 514.238 728.168 514.43 728.361 514.43 728.746 514.238 729.131 514.045 729.324 513.852 729.324 513.66 729.516 513.275 729.516 512.889 729.516 512.697 729.324 512.311 729.131 512.119 728.746 511.926 725.857 510.77 722.582 510 719.5 510 706.402 510 696 520.594 696 533.5 696 546.406 706.402 557 719.5 557 732.406 557 743 546.406 743 533.5 743 530.225 742.229 527.143 741.074 524.254Z" fill-rule="evenodd"/></g></svg>