<?xml version="1.0" encoding="UTF-8" standalone="no"?>
<svg
 xmlns:dc="http://purl.org/dc/elements/1.1/"
 xmlns:cc="http://creativecommons.org/ns#"
 xmlns:rdf="http://www.w3.org/1999/02/22-rdf-syntax-ns#"
 xmlns:svg="http://www.w3.org/2000/svg"
 xmlns="http://www.w3.org/2000/svg"
 xmlns:xlink="http://www.w3.org/1999/xlink"
 xmlns:sodipodi="http://sodipodi.sourceforge.net/DTD/sodipodi-0.dtd"
 xmlns:inkscape="http://www.inkscape.org/namespaces/inkscape"
 width="25"
 height="24"
 viewBox="0 0 25 24"
 version="1.1"
 id="svg863"
 sodipodi:docname="flecha_azul.svg"
 inkscape:version="1.0.1 (3bc2e813f5, 2020-09-07)">
<metadata
 id="metadata867">
<rdf:RDF>
<cc:Work
 rdf:about="">
<dc:format>image/svg+xml</dc:format>
<dc:type
 rdf:resource="http://purl.org/dc/dcmitype/StillImage" />
<dc:title></dc:title>
</cc:Work>
</rdf:RDF>
</metadata>
<sodipodi:namedview
 pagecolor="#ffffff"
 bordercolor="#666666"
 borderopacity="1"
 objecttolerance="10"
 gridtolerance="10"
 guidetolerance="10"
 inkscape:pageopacity="0"
 inkscape:pageshadow="2"
 inkscape:window-width="1920"
 inkscape:window-height="1001"
 id="namedview865"
 showgrid="false"
 inkscape:zoom="30.625"
 inkscape:cx="12.5"
 inkscape:cy="13.240816"
 inkscape:window-x="-9"
 inkscape:window-y="-9"
 inkscape:window-maximized="1"
 inkscape:current-layer="svg863" />
<defs
 id="defs852">
<path
 id="prefix__a"
 d="M12.769.203l.084.077 6.898 7.111c.032.033.061.068.087.104l.06.096.045.099c.037.097.057.201.057.31 0 .109-.02.213-.057.31l-.046.099-.08.124-.066.076-6.898 7.111c-.347.358-.928.375-1.297.039-.34-.31-.382-.814-.113-1.17l.073-.087 5.446-5.614H.917C.411 8.889 0 8.492 0 8c0-.456.354-.832.81-.883l.107-.006H16.96l-5.444-5.613c-.32-.33-.33-.835-.039-1.175l.08-.082c.312-.284.775-.316 1.12-.102l.092.064z" />
</defs>
<g
 fill="none"
 fill-rule="evenodd"
 transform="translate(2 4)"
 id="g861">
<mask
 id="prefix__b"
 fill="#fff">
<use
 xlink:href="#prefix__a"
 id="use854" />
</mask>
<use
 fill="#F3ECF7"
 fill-rule="nonzero"
 xlink:href="#prefix__a"
 id="use857" />
<path
 fill="#7500C0"
 d="M-2 -4H22V20H-2z"
 mask="url(#prefix__b)"
 id="path859" />
</g>
<path
 style="opacity:1;fill:#00b0f0;stroke:#ffffff;stroke-width:0.0502292;stroke-opacity:1;fill-opacity:1"
 d="m 13.985714,19.968131 c -0.29015,-0.07459 -0.524745,-0.270142 -0.636927,-0.530918 -0.09863,-0.229284 -0.08023,-0.543815 0.04383,-0.749055 0.04695,-0.07767 1.319614,-1.41224 2.828144,-2.965709 l 2.74278,-2.82449 -8.137895,-0.01633 -8.1378949,-0.01633 -0.1863809,-0.09153 c -0.6451603,-0.316816 -0.6451603,-1.230746 0,-1.547562 l 0.1863809,-0.09153 8.1373749,-0.01633 8.137375,-0.01633 -2.742279,-2.82449 C 14.711973,6.7240816 13.439542,5.3895127 13.392602,5.3118424 13.268559,5.1065902 13.25016,4.7920509 13.348787,4.562787 c 0.0804,-0.1868837 0.292591,-0.4033935 0.46662,-0.4761078 0.284615,-0.1189196 0.630059,-0.090891 0.866409,0.070297 0.0709,0.048357 1.71031,1.718942 3.643121,3.7124114 2.524507,2.6037344 3.534092,3.6658714 3.584825,3.7714284 0.103768,0.2159 0.09809,0.519907 -0.01373,0.734694 -0.06192,0.118953 -1.035036,1.142575 -3.585326,3.771429 -1.925183,1.98449 -3.557896,3.647479 -3.62825,3.695532 -0.19274,0.131644 -0.475269,0.182599 -0.696746,0.12566 z"
 id="path869" />
</svg>
