<svg width="51" height="49" xmlns="http://www.w3.org/2000/svg" xmlns:xlink="http://www.w3.org/1999/xlink" overflow="hidden"><defs><clipPath id="clip0"><rect x="806" y="503" width="51" height="49"/></clipPath></defs><g clip-path="url(#clip0)" transform="translate(-806 -503)"><path d="M854.979 551C808.021 551 808.021 551 808.021 551 807.51 551 807 550.667 807 550 807 549.5 807.51 549 808.021 549 854.979 549 854.979 549 854.979 549 855.66 549 856 549.5 856 550 856 550.667 855.66 551 854.979 551Z" fill-rule="evenodd"/><path d="M816 551C810 551 810 551 810 551 809.5 551 809 550.667 809 550 809 544 809 544 809 544 809 543.5 809.5 543 810 543 816 543 816 543 816 543 816.667 543 817 543.5 817 544 817 550 817 550 817 550 817 550.667 816.667 551 816 551ZM811 549C815 549 815 549 815 549 815 545 815 545 815 545 811 545 811 545 811 545L811 549Z" fill-rule="evenodd"/><path d="M828.875 551C822.125 551 822.125 551 822.125 551 821.562 551 821 550.667 821 550 821 536 821 536 821 536 821 535.5 821.562 535 822.125 535 828.875 535 828.875 535 828.875 535 829.625 535 830 535.5 830 536 830 550 830 550 830 550 830 550.667 829.625 551 828.875 551ZM823.25 549C827.75 549 827.75 549 827.75 549 827.75 537 827.75 537 827.75 537 823.25 537 823.25 537 823.25 537L823.25 549Z" fill-rule="evenodd"/><path d="M841 551C835 551 835 551 835 551 834.5 551 834 550.667 834 550 834 528 834 528 834 528 834 527.5 834.5 527 835 527 841 527 841 527 841 527 841.667 527 842 527.5 842 528 842 550 842 550 842 550 842 550.667 841.667 551 841 551ZM836 549C840 549 840 549 840 549 840 529 840 529 840 529 836 529 836 529 836 529L836 549Z" fill-rule="evenodd"/><path d="M853 551C847 551 847 551 847 551 846.5 551 846 550.667 846 550 846 520 846 520 846 520 846 519.5 846.5 519 847 519 853 519 853 519 853 519 853.667 519 854 519.5 854 520 854 550 854 550 854 550 854 550.667 853.667 551 853 551ZM848 549C852 549 852 549 852 549 852 521 852 521 852 521 848 521 848 521 848 521L848 549Z" fill-rule="evenodd"/><path d="M813.022 531C812.852 531 812.511 530.834 812.17 530.503 812 530.172 812 529.51 812.511 529.178 849.297 505.331 849.297 505.331 849.297 505.331 849.808 505 850.489 505.166 850.659 505.662 851 506.159 851 506.656 850.489 506.987 813.703 530.834 813.703 530.834 813.703 530.834 813.533 531 813.362 531 813.022 531Z" fill-rule="evenodd"/><path d="M848.869 515C848.869 515 848.869 515 848.869 515 848.213 515 847.885 514.5 847.885 514 848.869 506.833 848.869 506.833 848.869 506.833 841.984 506 841.984 506 841.984 506 841.328 506 841 505.5 841 505 841.164 504.333 841.656 504 842.148 504 850.016 505 850.016 505 850.016 505 850.344 505 850.508 505.167 850.672 505.333 850.836 505.667 851 505.833 850.836 506.167 849.852 514.167 849.852 514.167 849.852 514.167 849.852 514.667 849.361 515 848.869 515Z" fill-rule="evenodd"/></g></svg>