<svg width="38" height="53" xmlns="http://www.w3.org/2000/svg" xmlns:xlink="http://www.w3.org/1999/xlink" overflow="hidden"><defs><clipPath id="clip0"><path d="M751 158 789 158 789 211 751 211Z" fill-rule="evenodd" clip-rule="evenodd"/></clipPath></defs><g clip-path="url(#clip0)" transform="translate(-751 -158)"><path d="M770 195.5C760.392 195.5 752.5 187.779 752.5 178 752.5 168.392 760.392 160.5 770 160.5 779.608 160.5 787.5 168.392 787.5 178 787.5 187.779 779.608 195.5 770 195.5ZM770 162.559C761.422 162.559 754.559 169.593 754.559 178 754.559 186.578 761.422 193.441 770 193.441 778.407 193.441 785.441 186.578 785.441 178 785.441 169.593 778.407 162.559 770 162.559Z" stroke="#A100FF" stroke-linejoin="round" stroke-miterlimit="10" fill="#A100FF" fill-rule="evenodd"/><path d="M775.417 199.5C764.583 199.5 764.583 199.5 764.583 199.5 764.042 199.5 763.5 199.167 763.5 198.5 763.5 198 764.042 197.5 764.583 197.5 775.417 197.5 775.417 197.5 775.417 197.5 775.958 197.5 776.5 198 776.5 198.5 776.5 199.167 775.958 199.5 775.417 199.5Z" stroke="#A100FF" stroke-linejoin="round" stroke-miterlimit="10" fill="#A100FF" fill-rule="evenodd"/><path d="M775.417 203.5C764.583 203.5 764.583 203.5 764.583 203.5 764.042 203.5 763.5 203.167 763.5 202.5 763.5 202 764.042 201.5 764.583 201.5 775.417 201.5 775.417 201.5 775.417 201.5 775.958 201.5 776.5 202 776.5 202.5 776.5 203.167 775.958 203.5 775.417 203.5Z" stroke="#A100FF" stroke-linejoin="round" stroke-miterlimit="10" fill="#A100FF" fill-rule="evenodd"/><path d="M775.417 207.5C764.583 207.5 764.583 207.5 764.583 207.5 764.042 207.5 763.5 207.167 763.5 206.5 763.5 206 764.042 205.5 764.583 205.5 775.417 205.5 775.417 205.5 775.417 205.5 775.958 205.5 776.5 206 776.5 206.5 776.5 207.167 775.958 207.5 775.417 207.5Z" stroke="#A100FF" stroke-linejoin="round" stroke-miterlimit="10" fill="#A100FF" fill-rule="evenodd"/><path d="M770.5 209.5C770 209.5 769.5 209.167 769.5 208.5 769.5 206.5 769.5 206.5 769.5 206.5 769.5 206 770 205.5 770.5 205.5 771 205.5 771.5 206 771.5 206.5 771.5 208.5 771.5 208.5 771.5 208.5 771.5 209.167 771 209.5 770.5 209.5Z" stroke="#A100FF" stroke-linejoin="round" stroke-miterlimit="10" fill="#A100FF" fill-rule="evenodd"/><path d="M773.265 188.307C772.912 188.307 772.735 188.307 772.559 188.113 770.088 185.403 770.088 185.403 770.088 185.403 767.618 188.113 767.618 188.113 767.618 188.113 767.265 188.5 766.559 188.5 766.206 188.113 763.029 184.629 763.029 184.629 763.029 184.629 762.5 184.048 762.5 183.468 763.029 182.887 763.382 182.5 764.088 182.5 764.441 182.887 766.912 185.597 766.912 185.597 766.912 185.597 769.382 182.887 769.382 182.887 769.382 182.887 769.735 182.5 770.441 182.5 770.794 182.887 773.265 185.597 773.265 185.597 773.265 185.597 775.735 182.887 775.735 182.887 775.735 182.887 776.088 182.5 776.794 182.5 777.147 182.887 777.5 183.468 777.5 184.048 777.147 184.629 773.971 188.113 773.971 188.113 773.971 188.113 773.794 188.307 773.441 188.307 773.265 188.307Z" stroke="#A100FF" stroke-linejoin="round" stroke-miterlimit="10" fill="#A100FF" fill-rule="evenodd"/><path d="M770.5 195.5C770 195.5 769.5 195.139 769.5 194.417 769.5 183.583 769.5 183.583 769.5 183.583 769.5 183.042 770 182.5 770.5 182.5 771 182.5 771.5 183.042 771.5 183.583 771.5 194.417 771.5 194.417 771.5 194.417 771.5 195.139 771 195.5 770.5 195.5Z" stroke="#A100FF" stroke-linejoin="round" stroke-miterlimit="10" fill="#A100FF" fill-rule="evenodd"/></g></svg>