<?xml version="1.0" encoding="UTF-8" standalone="no"?>
<svg
 xmlns:dc="http://purl.org/dc/elements/1.1/"
 xmlns:cc="http://creativecommons.org/ns#"
 xmlns:rdf="http://www.w3.org/1999/02/22-rdf-syntax-ns#"
 xmlns:svg="http://www.w3.org/2000/svg"
 xmlns="http://www.w3.org/2000/svg"
 xmlns:sodipodi="http://sodipodi.sourceforge.net/DTD/sodipodi-0.dtd"
 xmlns:inkscape="http://www.inkscape.org/namespaces/inkscape"
 width="125"
 height="77"
 overflow="hidden"
 version="1.1"
 id="svg23"
 sodipodi:docname="reflexiona.svg"
 viewBox="0 0 125 77"
 inkscape:version="1.0.1 (3bc2e813f5, 2020-09-07)">
<metadata
 id="metadata27">
<rdf:RDF>
<cc:Work
 rdf:about="">
<dc:format>image/svg+xml</dc:format>
<dc:type
 rdf:resource="http://purl.org/dc/dcmitype/StillImage" />
<dc:title></dc:title>
</cc:Work>
</rdf:RDF>
</metadata>
<sodipodi:namedview
 pagecolor="#ffffff"
 bordercolor="#666666"
 borderopacity="1"
 objecttolerance="10"
 gridtolerance="10"
 guidetolerance="10"
 inkscape:pageopacity="0"
 inkscape:pageshadow="2"
 inkscape:window-width="1920"
 inkscape:window-height="1001"
 id="namedview25"
 showgrid="false"
 scale-x="1"
 inkscape:zoom="8.1052632"
 inkscape:cx="76"
 inkscape:cy="43.5"
 inkscape:window-x="-9"
 inkscape:window-y="-9"
 inkscape:window-maximized="1"
 inkscape:current-layer="svg23"
 inkscape:document-rotation="0"
 showborder="false"
 inkscape:showpageshadow="false" />
<defs
 id="defs5">
<marker
 style="overflow:visible"
 id="Arrow1Lstart"
 refX="0.0"
 refY="0.0"
 orient="auto"
 inkscape:stockid="Arrow1Lstart"
 inkscape:isstock="true">
<path
 transform="scale(0.8) translate(12.5,0)"
 style="fill-rule:evenodd;stroke:#000000;stroke-width:1.0pt"
 d="M 0.0,0.0 L 5.0,-5.0 L -12.5,0.0 L 5.0,5.0 L 0.0,0.0 z "
 id="path870" />
</marker>
<clipPath
 id="clip0">
<rect
 x="564"
 y="461"
 width="152"
 height="87"
 id="rect2" />
</clipPath>
</defs>
<g
 clip-path="url(#clip0)"
 transform="translate(-564,-461)"
 id="g21">
<text
 fill="#a100ff"
 font-family="Graphik, Graphik_MSFontService, sans-serif"
 font-weight="700"
 font-size="16px"
 transform="translate(574.276,535)"
 id="text7">REFLEXIONA</text>
<rect
 x="632"
 y="489"
 width="2"
 height="6"
 fill="#a100ff"
 id="rect9" />
<path
 d="m 633,513 c -27.84,0 -27.84,0 -27.84,0 -0.58,0 -1.16,-0.581 -1.16,-1.161 0,-5.613 0,-5.613 0,-5.613 0,-3.484 2.127,-6.581 5.413,-7.742 10.827,-3.871 10.827,-3.871 10.827,-3.871 0,-5.613 0,-5.613 0,-5.613 2.32,0 2.32,0 2.32,0 0,6.581 0,6.581 0,6.581 0,0.387 -0.387,0.774 -0.773,0.967 -11.6,4.258 -11.6,4.258 -11.6,4.258 -2.32,0.775 -3.867,2.904 -3.867,5.42 0,4.451 0,4.451 0,4.451 26.68,0 26.68,0 26.68,0 z"
 fill="#a100ff"
 fill-rule="evenodd"
 id="path11" />
<path
 d="m 627,492 c -7.288,0 -13,-6.731 -13,-15 0,-8.269 5.712,-15 13,-15 7.091,0 13,6.731 13,15 0,8.269 -5.909,15 -13,15 z m 0,-27.692 c -5.909,0 -10.636,5.577 -10.636,12.692 0,6.923 4.727,12.692 10.636,12.692 5.712,0 10.636,-5.769 10.636,-12.692 0,-7.115 -4.924,-12.692 -10.636,-12.692 z"
 fill="#a100ff"
 fill-rule="evenodd"
 id="path13" />
<path
 d="m 635.852,477 c -2.95,0 -5.114,-1.324 -6.885,-3.784 -2.164,2.081 -5.705,3.595 -8.852,3.595 -1.967,0 -3.541,-0.379 -5.115,-1.325 0.984,-1.891 0.984,-1.891 0.984,-1.891 1.377,0.567 2.557,0.946 4.131,0.946 2.951,0 6.688,-1.892 7.869,-3.784 0.196,-0.379 0.59,-0.568 0.983,-0.757 0.394,0 0.787,0.378 0.984,0.757 1.967,3.216 4.131,4.351 7.672,3.784 0.197,-0.19 0.59,-0.19 0.787,-0.19 0,0 0.197,0 0.393,0 0.197,2.271 0.197,2.271 0.197,2.271 -0.197,0 -0.393,0 -0.59,0 -0.197,0 -0.197,0 -0.394,0.189 -0.787,0 -1.573,0.189 -2.164,0.189 z"
 fill="#a100ff"
 fill-rule="evenodd"
 id="path15" />
<path
 d="m 645.5,513 c -5.344,0 -9.5,-4.354 -9.5,-9.5 0,-5.344 4.156,-9.5 9.5,-9.5 5.146,0 9.5,4.156 9.5,9.5 0,5.146 -4.354,9.5 -9.5,9.5 z m 0,-16.625 c -3.958,0 -7.125,3.167 -7.125,7.125 0,3.76 3.167,7.125 7.125,7.125 3.958,0 7.125,-3.365 7.125,-7.125 0,-3.958 -3.167,-7.125 -7.125,-7.125 z"
 fill="#a100ff"
 fill-rule="evenodd"
 id="path17" />
<path
 d="m 657.898,517 c -0.367,0 -0.551,-0.184 -0.735,-0.367 -6.612,-6.613 -6.612,-6.613 -6.612,-6.613 -0.551,-0.367 -0.551,-1.102 0,-1.653 0.367,-0.367 1.102,-0.367 1.469,0 6.613,6.613 6.613,6.613 6.613,6.613 0.367,0.551 0.367,1.285 0,1.653 -0.184,0.183 -0.551,0.367 -0.735,0.367 z"
 fill="#a100ff"
 fill-rule="evenodd"
 id="path19" />
</g>
<rect
 style="opacity:1;fill:none;fill-opacity:1;stroke:#a100ff;stroke-width:1.038;stroke-linecap:round;stroke-linejoin:round;stroke-miterlimit:4;stroke-dasharray:none;stroke-dashoffset:0;stroke-opacity:1;paint-order:stroke markers fill"
 id="rect863"
 width="111.16233"
 height="77.850639"
 x="7.7727275"
 y="-0.61688322"
 ry="4.0714288" />
</svg>
