<svg width="49" height="48" xmlns="http://www.w3.org/2000/svg" xmlns:xlink="http://www.w3.org/1999/xlink" overflow="hidden"><defs><clipPath id="clip0"><rect x="1051" y="507" width="49" height="48"/></clipPath></defs><g clip-path="url(#clip0)" transform="translate(-1051 -507)"><path d="M1098.02 523C1052.98 523 1052.98 523 1052.98 523 1052.49 523 1052 522.5 1052 522 1052 521.5 1052.49 521 1052.98 521 1098.02 521 1098.02 521 1098.02 521 1098.51 521 1099 521.5 1099 522 1099 522.5 1098.51 523 1098.02 523Z" fill-rule="evenodd"/><path d="M1075.5 554C1075.17 554 1074.85 553.837 1074.68 553.51 1052.16 522.177 1052.16 522.177 1052.16 522.177 1052 521.851 1052 521.361 1052.16 521.035 1061.95 507.326 1061.95 507.326 1061.95 507.326 1062.12 507.163 1062.44 507 1062.77 507 1088.23 507 1088.23 507 1088.23 507 1088.56 507 1088.88 507.163 1089.05 507.326 1098.84 521.035 1098.84 521.035 1098.84 521.035 1099 521.361 1099 521.851 1098.84 522.177 1076.32 553.51 1076.32 553.51 1076.32 553.51 1076.15 553.837 1075.83 554 1075.5 554ZM1054.12 521.688C1075.5 551.389 1075.5 551.389 1075.5 551.389 1096.88 521.688 1096.88 521.688 1096.88 521.688 1087.74 508.958 1087.74 508.958 1087.74 508.958 1063.26 508.958 1063.26 508.958 1063.26 508.958L1054.12 521.688Z" fill-rule="evenodd"/><path d="M1075.5 554C1075.03 554 1074.71 553.675 1074.55 553.187 1066 521.962 1066 521.962 1066 521.962 1066 521.799 1066 521.474 1066.16 521.311 1074.71 507.651 1074.71 507.651 1074.71 507.651 1075.03 507 1075.97 507 1076.29 507.651 1084.84 521.311 1084.84 521.311 1084.84 521.311 1085 521.474 1085 521.799 1085 521.962 1076.45 553.187 1076.45 553.187 1076.45 553.187 1076.29 553.675 1075.97 554 1075.5 554ZM1068.06 521.962C1075.5 549.446 1075.5 549.446 1075.5 549.446 1083.1 521.962 1083.1 521.962 1083.1 521.962 1075.5 509.927 1075.5 509.927 1075.5 509.927L1068.06 521.962Z" fill-rule="evenodd"/><path d="M1066.71 523C1066.16 523 1065.79 522.67 1065.61 522.175 1061.18 508.32 1061.18 508.32 1061.18 508.32 1061 507.825 1061.37 507.33 1061.92 507.165 1062.66 507 1063.21 507.33 1063.39 507.825 1067.82 521.68 1067.82 521.68 1067.82 521.68 1068 522.175 1067.63 522.835 1067.08 523 1066.89 523 1066.89 523 1066.71 523Z" fill-rule="evenodd"/><path d="M1084.11 523C1083.95 523 1083.95 523 1083.79 523 1083.32 522.835 1083 522.175 1083.16 521.68 1086.95 507.825 1086.95 507.825 1086.95 507.825 1087.11 507.33 1087.74 507 1088.21 507.165 1088.68 507.33 1089 507.825 1088.84 508.32 1085.05 522.175 1085.05 522.175 1085.05 522.175 1084.89 522.67 1084.58 523 1084.11 523Z" fill-rule="evenodd"/></g></svg>