<svg xmlns="http://www.w3.org/2000/svg" xmlns:xlink="http://www.w3.org/1999/xlink" width="25" height="24" viewBox="0 0 25 24">
    <defs>
        <path id="prefix__a" d="M12.769.203l.084.077 6.898 7.111c.032.033.061.068.087.104l.06.096.045.099c.037.097.057.201.057.31 0 .109-.02.213-.057.31l-.046.099-.08.124-.066.076-6.898 7.111c-.347.358-.928.375-1.297.039-.34-.31-.382-.814-.113-1.17l.073-.087 5.446-5.614H.917C.411 8.889 0 8.492 0 8c0-.456.354-.832.81-.883l.107-.006H16.96l-5.444-5.613c-.32-.33-.33-.835-.039-1.175l.08-.082c.312-.284.775-.316 1.12-.102l.092.064z"/>
    </defs>
    <g fill="none" fill-rule="evenodd" transform="translate(2 4)">
        <mask id="prefix__b" fill="#fff">
            <use xlink:href="#prefix__a"/>
        </mask>
        <use fill="#F3ECF7" fill-rule="nonzero" xlink:href="#prefix__a"/>
        <path fill="#7500C0" d="M-2 -4H22V20H-2z" mask="url(#prefix__b)"/>
    </g>
</svg>
