<svg width="48" height="48" xmlns="http://www.w3.org/2000/svg" xmlns:xlink="http://www.w3.org/1999/xlink" overflow="hidden"><defs><clipPath id="clip0"><rect x="1171" y="508" width="48" height="48"/></clipPath></defs><g clip-path="url(#clip0)" transform="translate(-1171 -508)"><path d="M1181 531C1181 530.5 1180.5 530 1180 530 1176 530 1176 530 1176 530 1175.5 530 1175 530.5 1175 531 1175 531.667 1175.5 532 1176 532 1180 532 1180 532 1180 532 1180.5 532 1181 531.667 1181 531Z" fill-rule="evenodd"/><path d="M1214 530C1210 530 1210 530 1210 530 1209.5 530 1209 530.5 1209 531 1209 531.667 1209.5 532 1210 532 1214 532 1214 532 1214 532 1214.5 532 1215 531.667 1215 531 1215 530.5 1214.5 530 1214 530Z" fill-rule="evenodd"/><path d="M1195 546C1194.5 546 1194 546.5 1194 547 1194 551 1194 551 1194 551 1194 551.667 1194.5 552 1195 552 1195.5 552 1196 551.667 1196 551 1196 547 1196 547 1196 547 1196 546.5 1195.5 546 1195 546Z" fill-rule="evenodd"/><path d="M1195 512C1194.5 512 1194 512.5 1194 513 1194 517 1194 517 1194 517 1194 517.667 1194.5 518 1195 518 1195.5 518 1196 517.667 1196 517 1196 513 1196 513 1196 513 1196 512.5 1195.5 512 1195 512Z" fill-rule="evenodd"/><path d="M1214 520.833C1215.83 524.167 1217 528 1217 532 1217 544.167 1207.17 554 1195 554 1182.83 554 1173 544.167 1173 532 1173 520 1182.83 510 1195 510 1200.33 510 1205.33 512 1209.17 515.167 1210.5 513.833 1210.5 513.833 1210.5 513.833 1206.33 510.167 1201 508 1195 508 1181.83 508 1171 518.833 1171 532 1171 545.333 1181.83 556 1195 556 1208.17 556 1219 545.333 1219 532 1219 527.5 1217.67 523.167 1215.33 519.5L1214 520.833Z" fill-rule="evenodd"/><path d="M1195.12 535C1195.28 535 1195.61 534.838 1195.77 534.676 1215.52 514.779 1215.52 514.779 1215.52 514.779 1216 514.294 1216 513.809 1215.52 513.324 1215.2 513 1214.55 513 1214.23 513.324 1194.48 533.382 1194.48 533.382 1194.48 533.382 1194 533.706 1194 534.353 1194.48 534.676 1194.64 534.838 1194.8 535 1195.12 535Z" fill-rule="evenodd"/><path d="M1185.81 524.306C1185.32 524 1184.66 524 1184.33 524.306 1184 524.611 1184 525.222 1184.33 525.681 1194.19 534.847 1194.19 534.847 1194.19 534.847 1194.36 535 1194.68 535 1194.85 535 1195.18 535 1195.51 535 1195.67 534.847 1196 534.389 1196 533.778 1195.67 533.472L1185.81 524.306Z" fill-rule="evenodd"/></g></svg>